<svg height="100%" version="1.1" width="100%" xmlns="http://www.w3.org/2000/svg" preserveAspectRatio="xMidYMid meet" viewBox="0 0 600 442" xmlns:xlink="http://www.w3.org/1999/xlink"><desc>Created with Snap</desc><defs/><g id="root" contentwidth="303.90000000000003" contentheight="234.8">
          <rect class="background" height="2000%" width="2000%" y="-1000%" x="-1000%" style="" fill="#ffffff"/>
          <g class="content" id="content" transform="matrix(1,0,0,1,1.45,11.6)">
            <g class="icon">
            <svg height="151" version="1.1" width="74" xmlns="http://www.w3.org/2000/svg" x="225" y="112" preserveAspectRatio="none" transform="matrix(1,0,0,1,0,0)"><desc>Created with Snap</desc><defs/><svg xmlns="http://www.w3.org/2000/svg" viewBox="225 112 74 151"><path d="m260.31 112.412 39.055 22.434v85.436L225 263v-36.88l42.265-24.278v-48.556l-28.627-16.444h21.673l-.001-24.43Z" id="prefix-s3U-形状结合" fill="#0957F3" fill-rule="nonzero" transform="matrix(-1 0 0 1 524.365 0)"/></svg></svg><svg height="61" version="1.1" width="74" xmlns="http://www.w3.org/2000/svg" x="225" y="110" preserveAspectRatio="none" transform="matrix(1,0,0,1,0,0)"><desc>Created with Snap</desc><defs/><svg xmlns="http://www.w3.org/2000/svg" viewBox="225 110 74 61"><path d="m256.746 110.365 42.62 24.481v37.009l-32.102-18.431v-.138L225 129.008v-.434l31.746-18.21Z" id="prefix-TGp-形状结合" fill="#00BCE4" fill-rule="nonzero" transform="matrix(-1 0 0 1 524.365 0)"/></svg></svg><svg height="151" version="1.1" width="74" xmlns="http://www.w3.org/2000/svg" x="300" y="92" preserveAspectRatio="none" transform="matrix(1,0,0,1,0,0)"><desc>Created with Snap</desc><defs/><svg xmlns="http://www.w3.org/2000/svg" viewBox="300 92 74 151"><path d="M334.945 92 374 114.435v85.435l-74.365 42.718v-36.88l42.264-24.278v-48.556l-28.626-16.444h21.672V92Z" id="prefix-k6c-形状结合" fill="#0957F3" fill-rule="nonzero" transform="matrix(1 0 0 -1 0 334.588)"/></svg></svg><svg height="61" version="1.1" width="74" xmlns="http://www.w3.org/2000/svg" x="300" y="183" preserveAspectRatio="none" transform="matrix(1,0,0,1,0,0)"><desc>Created with Snap</desc><defs/><svg xmlns="http://www.w3.org/2000/svg" viewBox="300 183 74 61"><path d="M331.38 183.146 374 207.627v37.009l-32.101-18.431v-.138l-42.264-24.278v-.434l31.746-18.21Z" id="prefix-MJu-形状结合" fill="#00BCE4" fill-rule="nonzero" transform="matrix(1 0 0 -1 0 427.781)"/></svg></svg></g>
            <g id="icon_name_and_slogan_gap">
            </g>
            <g class="border">
            </g>
          </g>
          
          <defs id="defs">
            <mask xmlns="http://www.w3.org/2000/svg" id="mask">
                <rect id="showAll" fill="white" x="225" y="92" width="149" height="171"/>
                <rect id="hideNameBg" fill="black" x="0" y="0" width="0" height="0" stroke-width="2" stroke="black"/>
                <rect id="hideSloganBg" fill="black" x="0" y="0" width="0" height="0" stroke-width="2" stroke="black"/>
            </mask>
          </defs>
          
        </g>
        </svg>